# xmcd CD database file
#
# Track frame offsets:
#	150
#	15398
#	28160
#	44180
#	62192
#	80267
#	98295
#	113673
#	129389
#	143575
#	159405
#	172696
#	190781
#	203374
#	217924
#	232220
#	245820
#	261572
#	280280
#	292914
#	308938
#	322707
#
# Disc length: 4547 seconds
#
# Revision: 0
# Processed by: cddbd v1.5.2PL0 Copyright (c) Steve Scherf et al.
# Submitted via: CDex 1.51
#
DISCID=2b11c116
DTITLE=Raízes do Sertão - Raízes do Sertão
DYEAR=2006
DGENRE=Country
TTITLE0=Franguinho na Panela - Cravero and Cravinho
TTITLE1=Mala Amarela - Janio and Junior
TTITLE2=Reino Encantado - Daniel
TTITLE3=Filho Adotivo - Sérgio Reis
TTITLE4=Olha lá meu Pai - César and Paulinho
TTITLE5=Índia - Cascatinha and Inhana
TTITLE6=Cuitelinho - Pena Branca and Xavantinho
TTITLE7=Filho Pródigo - Sérgio Reis
TTITLE8=Saudade de Minha Terra - Belmonte and Amarai
TTITLE9=Ipê e o Prisioneiro - Liu and Leo
TTITLE10=Pagode em Brasília - Tião Carreiro
TTITLE11=Cabocla Tereza - Tonico and Tinoco
TTITLE12=Chalana - Sérgio Reis
TTITLE13=Leiteiro - Teodoro and Sampaio
TTITLE14=Couro de Boi - Tonico and Tinoco
TTITLE15=O Mineiro e o Italiano - Tião Carreiro and Pardinho
TTITLE16=Boiadeiro Errante - Sérgio Reis
TTITLE17=Nelore Valente - João Paulo and Daniel
TTITLE18=Pé de Cedro - Belmonte and Amarai
TTITLE19=O Carro e a Faculdade - Trio Parada Dura
TTITLE20=Duas Mulheres - Janio and Junior
TTITLE21=Majestade o Sabiá - Jair Rodrigues
EXTD=YEAR: 2006
EXTT0=
EXTT1=
EXTT2=
EXTT3=
EXTT4=
EXTT5=
EXTT6=
EXTT7=
EXTT8=
EXTT9=
EXTT10=
EXTT11=
EXTT12=
EXTT13=
EXTT14=
EXTT15=
EXTT16=
EXTT17=
EXTT18=
EXTT19=
EXTT20=
EXTT21=
PLAYORDER=
